<?xml version="1.0" encoding="UTF-8" standalone="no"?>
<!-- Created with Inkscape (http://www.inkscape.org/) -->

<svg
   xmlns:dc="http://purl.org/dc/elements/1.1/"
   xmlns:cc="http://creativecommons.org/ns#"
   xmlns:rdf="http://www.w3.org/1999/02/22-rdf-syntax-ns#"
   xmlns:svg="http://www.w3.org/2000/svg"
   xmlns="http://www.w3.org/2000/svg"
   xmlns:sodipodi="http://sodipodi.sourceforge.net/DTD/sodipodi-0.dtd"
   xmlns:inkscape="http://www.inkscape.org/namespaces/inkscape"
   version="1.1"
   id="svg110109"
   xml:space="preserve"
   width="666.66669"
   height="666.66669"
   viewBox="0 0 666.66669 666.66669"
   sodipodi:docname="tree-low-poly-publicdomainvectors.org.svg"
   inkscape:version="0.92.4 (5da689c313, 2019-01-14)"><metadata
     id="metadata110115"><rdf:RDF><cc:Work
         rdf:about=""><dc:format>image/svg+xml</dc:format><dc:type
           rdf:resource="http://purl.org/dc/dcmitype/StillImage" /><dc:title></dc:title></cc:Work></rdf:RDF></metadata><defs
     id="defs110113"><clipPath
       clipPathUnits="userSpaceOnUse"
       id="clipPath110125"><path
         d="M 0,500 H 500 V 0 H 0 Z"
         id="path110123"
         inkscape:connector-curvature="0" /></clipPath></defs><sodipodi:namedview
     pagecolor="#ffffff"
     bordercolor="#666666"
     borderopacity="1"
     objecttolerance="10"
     gridtolerance="10"
     guidetolerance="10"
     inkscape:pageopacity="0"
     inkscape:pageshadow="2"
     inkscape:window-width="797"
     inkscape:window-height="480"
     id="namedview110111"
     showgrid="false"
     inkscape:zoom="0.35399999"
     inkscape:cx="333.33334"
     inkscape:cy="333.33334"
     inkscape:window-x="0"
     inkscape:window-y="0"
     inkscape:window-maximized="0"
     inkscape:current-layer="g110117" /><g
     id="g110117"
     inkscape:groupmode="layer"
     inkscape:label="tree-low-poly-publicdomainvectors.org"
     transform="matrix(1.3333333,0,0,-1.3333333,0,666.66667)"><g
       id="g110119"><g
         id="g110121"
         clip-path="url(#clipPath110125)"><path
           d="m 260.201,96.566 c -0.017,0.049 -0.033,0.098 -0.051,0.145 l -1.224,-0.082 z"
           style="fill:#5885bd;fill-opacity:1;fill-rule:nonzero;stroke:none"
           id="path110127"
           inkscape:connector-curvature="0" /><path
           d="m 314.838,99.417 1.625,-2.323 0.914,2.422 c 0.174,0.464 0.318,0.834 0.445,1.113 l -3.701,-0.251 c 0.211,-0.254 0.443,-0.572 0.717,-0.961"
           style="fill:#5885bd;fill-opacity:1;fill-rule:nonzero;stroke:none"
           id="path110129"
           inkscape:connector-curvature="0" /><path
           d="m 287.02,98.382 c 0,0.056 0.019,0.109 0.054,0.159 l -2.371,-0.161 c 1.17,-0.525 2.317,-0.649 2.317,0.002"
           style="fill:#5885bd;fill-opacity:1;fill-rule:nonzero;stroke:none"
           id="path110131"
           inkscape:connector-curvature="0" /><path
           d="m 319.578,100.171 c 1.588,-2.151 2.301,-2.183 4.272,-0.22 0.443,0.445 0.734,0.808 0.877,1.148 l -5.567,-0.378 c 0.125,-0.155 0.262,-0.337 0.418,-0.55"
           style="fill:#5885bd;fill-opacity:1;fill-rule:nonzero;stroke:none"
           id="path110133"
           inkscape:connector-curvature="0" /><path
           d="m 343.607,102.381 -4.345,-0.294 c 3.379,-1.842 5.82,-1.899 4.345,0.294"
           style="fill:#5885bd;fill-opacity:1;fill-rule:nonzero;stroke:none"
           id="path110135"
           inkscape:connector-curvature="0" /><path
           d="m 311.32,100.188 -2.107,-0.143 c 0.676,-0.674 1.166,-0.591 2.107,0.143"
           style="fill:#5885bd;fill-opacity:1;fill-rule:nonzero;stroke:none"
           id="path110137"
           inkscape:connector-curvature="0" /><path
           d="m 333.631,101.704 -3.098,-0.211 c 1.533,-1.018 2.125,-0.738 3.098,0.211"
           style="fill:#5885bd;fill-opacity:1;fill-rule:nonzero;stroke:none"
           id="path110139"
           inkscape:connector-curvature="0" /><path
           d="m 282.395,98.223 -3.006,-0.204 c 2.222,-2.101 3.365,-2.019 3.006,0.204"
           style="fill:#5885bd;fill-opacity:1;fill-rule:nonzero;stroke:none"
           id="path110141"
           inkscape:connector-curvature="0" /><path
           d="m 295.471,97.849 c 1.527,-0.621 1.806,-0.431 1.314,0.845 -0.062,0.166 -0.105,0.334 -0.129,0.497 l -5.32,-0.362 c 1.455,-0.177 2.996,-0.516 4.135,-0.98"
           style="fill:#5885bd;fill-opacity:1;fill-rule:nonzero;stroke:none"
           id="path110143"
           inkscape:connector-curvature="0" /><path
           d="m 236.797,92.122 c -0.303,-0.641 -0.552,-1.184 -0.727,-1.586 h 24.996 c 1.104,0.883 0.602,2.442 -0.545,5.183 -0.111,0.267 -0.218,0.55 -0.32,0.847 l -1.275,0.063 z"
           style="fill:#7093c6;fill-opacity:1;fill-rule:nonzero;stroke:none"
           id="path110145"
           inkscape:connector-curvature="0" /><path
           d="m 362.035,174.116 c 0.422,0.46 0.276,1.022 -0.678,1.646 -0.541,0.357 -1.867,0.696 -3.406,0.913 l -0.996,-0.602 z"
           style="fill:#7498c8;fill-opacity:1;fill-rule:nonzero;stroke:none"
           id="path110147"
           inkscape:connector-curvature="0" /><path
           d="m 356.955,176.073 0.996,0.602 c -0.301,0.041 -0.609,0.078 -0.924,0.11 z"
           style="fill:#8aafd4;fill-opacity:1;fill-rule:nonzero;stroke:none"
           id="path110149"
           inkscape:connector-curvature="0" /><path
           d="m 360.844,214.482 -0.215,-2.129 c 4.539,1.753 5.121,3.056 0.215,2.129"
           style="fill:#8aafd4;fill-opacity:1;fill-rule:nonzero;stroke:none"
           id="path110151"
           inkscape:connector-curvature="0" /><path
           d="m 359.773,203.91 -0.076,-0.763 c 0.453,0.321 0.5,0.54 0.076,0.763"
           style="fill:#8aafd4;fill-opacity:1;fill-rule:nonzero;stroke:none"
           id="path110153"
           inkscape:connector-curvature="0" /><path
           d="m 359.885,111.943 c 1.853,1.406 1.826,1.477 -1.039,1.508 -0.811,0.01 -2.018,0.116 -3.461,0.292 l -0.084,-3.231 c 1.857,0.227 3.73,0.787 4.584,1.431"
           style="fill:#5f92c3;fill-opacity:1;fill-rule:nonzero;stroke:none"
           id="path110155"
           inkscape:connector-curvature="0" /><path
           d="m 357.873,135.049 c -0.547,0.434 -1.244,0.824 -1.926,1.101 l -0.056,-2.307 c 3.486,-0.237 3.476,0.019 1.982,1.206"
           style="fill:#5f92c3;fill-opacity:1;fill-rule:nonzero;stroke:none"
           id="path110157"
           inkscape:connector-curvature="0" /><path
           d="m 360.352,139.479 c 0,0.358 -1.776,0.841 -4.289,1.221 l -0.055,-2.234 c 2.703,-0.038 4.344,0.316 4.344,1.013"
           style="fill:#5f92c3;fill-opacity:1;fill-rule:nonzero;stroke:none"
           id="path110159"
           inkscape:connector-curvature="0" /><path
           d="m 361.98,149.331 c -0.369,0.377 -2.488,0.209 -5.709,-0.403 l -0.087,-3.46 c 4.347,1.284 6.814,2.846 5.796,3.863"
           style="fill:#5f92c3;fill-opacity:1;fill-rule:nonzero;stroke:none"
           id="path110161"
           inkscape:connector-curvature="0" /><path
           d="m 356.873,172.86 c 2.502,0.08 4.51,0.546 5.162,1.256 l -5.08,1.957 z"
           style="fill:#5f92c3;fill-opacity:1;fill-rule:nonzero;stroke:none"
           id="path110163"
           inkscape:connector-curvature="0" /><path
           d="m 269.232,100.228 c 0.508,-0.318 1.092,-0.422 1.836,-0.369 1.309,0.099 3.026,-0.293 3.807,-0.876 1.018,-0.762 1.525,-0.731 1.82,0.121 0.26,0.793 1.063,0.542 2.35,-0.752 0.117,-0.119 0.232,-0.228 0.344,-0.333 l 3.006,0.204 c -0.024,0.139 -0.051,0.285 -0.084,0.44 -0.291,1.326 -0.143,1.827 0.353,1.196 0.463,-0.597 1.258,-1.129 2.039,-1.479 l 2.371,0.161 c 0.332,0.476 2.209,0.542 4.262,0.288 l 5.32,0.362 c -0.105,0.712 0.155,1.347 0.692,1.552 0.914,0.331 0.925,0.773 -0.03,1.785 -2.281,2.415 -1.338,2.724 2.422,0.816 4.149,-2.117 5.303,-1.81 3.295,0.844 -1.074,1.426 -1.097,1.536 -0.031,0.603 0.723,-0.651 1.939,-0.956 2.693,-0.663 0.762,0.29 1.416,0.131 1.416,-0.372 0,-0.511 0.614,-1.779 1.375,-2.834 0.276,-0.373 0.508,-0.663 0.725,-0.877 l 2.107,0.143 c 0.08,0.063 0.164,0.13 0.252,0.205 1.162,0.966 1.653,1.057 2.549,-0.015 l 3.701,0.251 c 0.42,0.899 0.699,0.883 1.338,0.092 l 5.567,0.378 c 0.252,0.594 0.052,1.116 -0.567,1.864 -0.674,0.815 -0.931,1.477 -0.562,1.477 0.361,0 0.131,1.025 -0.504,2.259 -0.065,0.125 -0.123,0.239 -0.176,0.347 l -25.393,3.061 z"
           style="fill:#6c9bc9;fill-opacity:1;fill-rule:nonzero;stroke:none"
           id="path110165"
           inkscape:connector-curvature="0" /><path
           d="m 260.15,96.711 c -0.033,0.102 -0.066,0.205 -0.099,0.31 l -1.125,-0.392 z"
           style="fill:#6c9bc9;fill-opacity:1;fill-rule:nonzero;stroke:none"
           id="path110167"
           inkscape:connector-curvature="0" /><path
           d="m 325.316,105.914 c 2.543,-2.294 4.122,-3.691 5.217,-4.421 l 3.098,0.211 c 0.043,0.042 0.09,0.086 0.135,0.132 0.882,0.888 1.254,2.164 0.841,2.855 -0.41,0.721 0.098,0.603 1.196,-0.281 1.185,-0.95 2.371,-1.729 3.459,-2.323 l 4.345,0.294 c -0.185,0.275 -0.429,0.586 -0.742,0.932 -0.619,0.687 -0.992,1.132 -1.08,1.458 l -17.56,2.118 c 0.314,-0.274 0.673,-0.597 1.091,-0.975"
           style="fill:#6c9bc9;fill-opacity:1;fill-rule:nonzero;stroke:none"
           id="path110169"
           inkscape:connector-curvature="0" /><path
           d="m 336.719,262.394 0.359,-0.545 c 0.063,0.287 -0.058,0.467 -0.359,0.545"
           style="fill:#b5cccd;fill-opacity:1;fill-rule:nonzero;stroke:none"
           id="path110171"
           inkscape:connector-curvature="0" /><path
           d="m 322.918,107.046 c -0.629,1.288 -0.375,1.308 1.307,-0.157 l 17.56,-2.118 c -0.139,0.532 0.492,0.74 2.115,1.143 l 2.729,0.694 -2.94,2.38 c -3.859,3.158 -1.8,3.164 3.725,0 2.139,-1.21 4.385,-2.238 5.35,-2.464 l -6.002,8.575 c -4.668,0.855 -9.147,1.853 -10.707,2.501 -3.903,1.606 -4.645,4.059 -0.785,2.6 3.386,-1.276 5.101,-0.221 2.599,1.6 -1.441,1.062 -0.973,1.184 2.865,0.883 0.264,-0.021 0.512,-0.037 0.754,-0.048 l -18.353,26.218 c -5.791,2.073 -13.465,5.647 -18.805,8.581 l -6.805,-47.327 z"
           style="fill:#72a6ce;fill-opacity:1;fill-rule:nonzero;stroke:none"
           id="path110173"
           inkscape:connector-curvature="0" /><path
           d="m 304.561,159.045 c 0.429,-0.145 0.543,0.229 0.543,1.216 0,1.508 0.513,1.326 3.134,-1.134 l 3.145,-2.952 -0.594,3.232 c -0.603,3.196 -0.564,3.227 2.129,2.069 0.66,-0.277 1.393,-0.631 2.078,-0.997 l -8.484,12.122 z"
           style="fill:#72a6ce;fill-opacity:1;fill-rule:nonzero;stroke:none"
           id="path110175"
           inkscape:connector-curvature="0" /><path
           d="m 343.023,125.383 c -1.957,0.995 -1.625,1.116 2.637,0.908 5.754,-0.282 7.371,1.605 2.418,2.828 l -3.295,0.816 3.264,0.373 c 3.826,0.461 4.16,1.497 1.006,3.112 -1.848,0.944 -1.067,1.077 4.269,0.623 1.012,-0.083 1.86,-0.152 2.569,-0.2 l 0.056,2.307 c -0.656,0.269 -1.301,0.434 -1.779,0.434 -0.967,0 -2.043,0.503 -2.41,1.104 -0.424,0.686 0.195,1.037 1.685,0.907 0.932,-0.075 1.791,-0.118 2.565,-0.129 l 0.055,2.234 c -0.852,0.13 -1.79,0.247 -2.77,0.343 -3.877,0.385 -6.842,1.066 -6.561,1.509 0.272,0.454 3.166,1.417 6.43,2.14 1.084,0.241 2.094,0.503 3.022,0.776 l 0.087,3.46 c -2.208,-0.421 -4.935,-1.05 -7.974,-1.856 -2.287,-0.601 -2.238,-0.423 0.914,2.289 5.176,4.459 2.252,4.924 -5.213,0.815 -7.492,-4.117 -11.791,-4.451 -20.09,-1.596 -0.254,0.089 -0.513,0.18 -0.773,0.273 l 18.353,-26.218 c 4.237,-0.208 4.989,0.991 1.535,2.748"
           style="fill:#75add1;fill-opacity:1;fill-rule:nonzero;stroke:none"
           id="path110177"
           inkscape:connector-curvature="0" /><path
           d="m 353.07,106.478 c 2.03,-0.011 1.448,1.587 -1.006,2.762 -2.037,0.986 -1.876,1.108 1.79,1.165 0.47,0.008 0.957,0.047 1.447,0.107 l 0.084,3.231 c -2.447,0.299 -5.576,0.797 -8.623,1.356 l 6.002,-8.575 c 0.123,-0.027 0.228,-0.044 0.306,-0.046"
           style="fill:#75add1;fill-opacity:1;fill-rule:nonzero;stroke:none"
           id="path110179"
           inkscape:connector-curvature="0" /><path
           d="m 306.512,172.601 8.484,-12.122 c 0.885,-0.471 1.692,-0.96 2.16,-1.322 3.901,-2.994 4.354,-2.931 3.639,0.602 -0.533,2.662 -0.424,3.126 0.543,2.159 1.748,-1.748 5.865,-1.547 5.865,0.281 0,1.882 1.617,1.969 2.705,0.161 0.442,-0.744 2.055,-2.13 3.576,-3.105 2.278,-1.473 2.76,-1.523 2.76,-0.319 0,0.814 -0.902,2.269 -2.012,3.263 -1.103,1.006 -2.005,2.301 -2.005,2.864 0,0.553 0.252,0.712 0.593,0.375 0.338,-0.344 1.332,0.08 2.2,0.943 1.084,1.082 2.72,1.413 5.334,1.063 2.603,-0.35 3.945,-0.08 4.3,0.853 0.399,1.025 1.313,1.127 3.834,0.403 8.864,-2.54 10.489,0.363 1.938,3.454 -5.772,2.091 -6.496,3.155 -1.094,1.601 2.475,-0.709 5.221,-0.97 7.541,-0.895 l 0.082,3.213 z"
           style="fill:#75add1;fill-opacity:1;fill-rule:nonzero;stroke:none"
           id="path110181"
           inkscape:connector-curvature="0" /><path
           d="m 320.172,293.012 c 2.289,-0.079 3.426,0.271 3.266,1.066 -0.143,0.671 0.23,1.227 0.839,1.227 0.766,0 0.725,0.51 -0.148,1.577 -0.834,0.994 -2.25,1.393 -3.9,1.062 -1.411,-0.29 -2.004,-0.301 -1.313,0 2.318,1.006 1.295,2.612 -1.256,1.979 -0.515,-0.129 -0.922,-0.213 -1.23,-0.244 l 2.984,-6.649 c 0.225,-10e-4 0.477,-0.007 0.758,-0.018"
           style="fill:#c8c7b1;fill-opacity:1;fill-rule:nonzero;stroke:none"
           id="path110183"
           inkscape:connector-curvature="0" /><path
           d="m 308.367,319.48 c -1.105,0.023 -0.64,0.533 1.256,1.41 1.658,0.762 4.342,2.479 5.969,3.827 l 2.914,2.449 -3.668,0.694 c -2.037,0.38 -3.707,1.126 -3.707,1.667 0,0.563 -1.164,0.704 -2.764,0.312 -2.41,-0.602 -2.621,-0.514 -1.506,0.843 1.94,2.36 -0.955,3.076 -3.929,0.975 -0.194,-0.138 -0.422,-0.27 -0.674,-0.396 l 6.332,-14.105 c 1.961,0.85 2.084,2.275 -0.223,2.324"
           style="fill:#c8c7b1;fill-opacity:1;fill-rule:nonzero;stroke:none"
           id="path110185"
           inkscape:connector-curvature="0" /><path
           d="m 294.555,348.432 c 0.195,0.084 0.533,0.111 1.035,0.111 1.687,0 1.666,0.11 0.031,1.919 -0.945,1.056 -1.297,2.16 -0.785,2.483 0.514,0.321 1.728,-0.305 2.703,-1.386 1.527,-1.691 2.51,-1.839 6.399,-1.066 0.212,0.042 -0.1,0.674 -0.725,1.416 -1.305,1.577 -0.533,2.663 1.92,2.663 0.957,0 2.814,0.894 4.109,1.976 l 1.91,1.583 -14.918,0.366 c -2.275,-1.212 -3.453,-1.249 -2.599,0.064 l -3.666,0.09 z"
           style="fill:#c8c7b1;fill-opacity:1;fill-rule:nonzero;stroke:none"
           id="path110187"
           inkscape:connector-curvature="0" /><path
           d="m 319.682,292.437 0.8,-1.792 c 1.006,0.461 0.801,1.265 -0.8,1.792"
           style="fill:#c8c7b1;fill-opacity:1;fill-rule:nonzero;stroke:none"
           id="path110189"
           inkscape:connector-curvature="0" /><path
           d="m 315.395,301.991 0.449,-1.002 c 0.424,1.11 0.291,1.399 -0.449,1.002"
           style="fill:#c8c7b1;fill-opacity:1;fill-rule:nonzero;stroke:none"
           id="path110191"
           inkscape:connector-curvature="0" /><path
           d="m 295.346,346.671 0.57,-1.274 c 0.022,0.297 -0.164,0.725 -0.57,1.274"
           style="fill:#c8c7b1;fill-opacity:1;fill-rule:nonzero;stroke:none"
           id="path110193"
           inkscape:connector-curvature="0" /><path
           d="m 307.881,192.908 c 1.869,-0.516 4.607,-0.896 6.826,-0.911 2.805,-0.023 5.516,-0.123 6.025,-0.222 2.354,-0.452 2.606,0.242 0.856,2.321 -1.268,1.508 -0.861,1.336 1.156,-0.503 3.477,-3.147 4.459,-3.405 4.459,-1.228 0,1.326 0.32,1.326 2.57,-0.147 1.52,-0.993 2.877,-1.306 3.268,-0.755 0.369,0.522 2.02,1.528 3.676,2.259 0.457,0.201 0.838,0.371 1.158,0.524 l -28.098,26.756 z"
           style="fill:#93c6de;fill-opacity:1;fill-rule:nonzero;stroke:none"
           id="path110195"
           inkscape:connector-curvature="0" /><path
           d="m 356.955,176.073 -0.826,0.786 c -0.266,0.016 -0.531,0.03 -0.797,0.037 -3.838,0.111 -4.09,0.213 -1.6,0.753 0.409,0.09 0.809,0.215 1.184,0.365 l -2.811,2.677 c -1.267,-0.055 -2.82,-0.15 -4.722,-0.28 -10.043,-0.692 -10.205,-0.692 -8.969,1.287 1.836,2.945 0.574,3.455 -4.428,1.76 -2.705,-0.914 -6.181,-1.306 -8.881,-0.975 -3.347,0.411 -11.148,2.723 -17.589,4.989 l -1.004,-14.871 z"
           style="fill:#93c6de;fill-opacity:1;fill-rule:nonzero;stroke:none"
           id="path110197"
           inkscape:connector-curvature="0" /><path
           d="m 357.027,176.785 c -0.298,0.029 -0.597,0.055 -0.898,0.074 l 0.826,-0.786 z"
           style="fill:#97c4de;fill-opacity:1;fill-rule:nonzero;stroke:none"
           id="path110199"
           inkscape:connector-curvature="0" /><path
           d="m 357.119,179.688 c 0.305,0.915 -0.59,1.196 -5.014,1.003 l 2.811,-2.677 c 1.111,0.441 2.008,1.096 2.203,1.674"
           style="fill:#97c4de;fill-opacity:1;fill-rule:nonzero;stroke:none"
           id="path110201"
           inkscape:connector-curvature="0" /><path
           d="m 335.207,221.999 2.545,0.042 -0.916,0.765 -4.289,-0.285 c 0.932,-0.324 1.906,-0.526 2.66,-0.522"
           style="fill:#97c4de;fill-opacity:1;fill-rule:nonzero;stroke:none"
           id="path110203"
           inkscape:connector-curvature="0" /><path
           d="m 337.875,194.246 c 1.691,0.808 1.479,1.06 -0.092,2.211 -2.273,1.656 -1.699,1.797 1.885,0.43 1.943,-0.732 2.605,-0.662 2.605,0.324 0,0.792 2.553,1.835 6.528,2.661 3.588,0.751 6.531,1.775 6.531,2.259 0,0.49 0.418,0.595 0.971,0.251 0.545,-0.331 1.801,-0.159 2.765,0.381 0.26,0.145 0.467,0.271 0.629,0.384 l 0.076,0.763 c -0.312,0.166 -0.882,0.336 -1.74,0.553 -2.099,0.52 -2.633,1.134 -2.203,2.51 0.424,1.336 -0.017,1.88 -1.725,2.131 -1.628,0.24 -0.472,0.945 3.958,2.35 0.96,0.307 1.814,0.609 2.566,0.899 l 0.215,2.129 c -0.08,-0.016 -0.158,-0.03 -0.24,-0.045 -5.555,-1.086 -19.336,-1.337 -19.336,-0.339 0,0.471 0.453,0.84 1.005,0.84 0.553,0 1.002,0.462 1.002,1.006 0,0.552 -2.148,0.963 -4.773,0.915 -6.588,-0.13 -17.125,2.066 -17.77,3.736 -0.222,0.569 -0.058,0.955 0.479,1.169 l -11.434,-0.762 z"
           style="fill:#97c4de;fill-opacity:1;fill-rule:nonzero;stroke:none"
           id="path110205"
           inkscape:connector-curvature="0" /><path
           d="m 329.521,228.973 c 0.051,0.019 0.124,0 0.192,0 0.553,0 1.68,-0.43 2.514,-0.976 0.822,-0.532 1.052,-0.975 0.503,-0.975 -0.552,0 -1.689,0.443 -2.515,0.975 -0.723,0.473 -1.004,0.885 -0.694,0.976 m -8.31,-7.209 c 0.348,0.137 0.844,0.205 1.502,0.205 1.367,0 2.484,0.446 2.484,0.975 0,0.545 0.668,0.736 1.502,0.411 0.824,-0.319 1.51,-0.049 1.51,0.594 0,0.775 0.754,0.624 2.229,-0.399 0.56,-0.398 1.318,-0.756 2.109,-1.029 l 4.289,0.285 -1.406,1.173 -2.289,1.92 4.802,0.314 4.83,0.349 -3.517,1.687 -3.516,1.698 3.076,0.032 c 1.961,0.029 3.965,0.952 5.465,2.541 1.293,1.384 2.823,2.508 3.428,2.508 0.588,0 1.686,0.926 2.377,2.041 1.838,2.945 -0.502,3.535 -6.277,1.577 -6.229,-2.121 -7.516,-2.06 -6.871,0.405 0.632,2.429 0.46,2.436 -5.846,0.38 -4.791,-1.57 -5.293,-1.527 -12.959,0.651 -1.039,0.295 -1.994,0.59 -2.871,0.878 l -5.485,-19.958 z"
           style="fill:#afd1e2;fill-opacity:1;fill-rule:nonzero;stroke:none"
           id="path110207"
           inkscape:connector-curvature="0" /><path
           d="m 328.459,253.743 c 0.168,0.164 0.473,0.234 0.811,0.251 0.355,0.012 0.775,-0.037 1.136,-0.189 0.803,-0.321 0.543,-0.541 -0.633,-0.592 -1.054,-0.053 -1.644,0.198 -1.314,0.53 m -10.428,-8.036 c 1.576,-1.424 2.897,-1.667 6.098,-1.135 4.559,0.774 4.842,1.157 2.318,3.238 -1.808,1.485 -1.131,1.443 3.178,-0.282 1.535,-0.613 1.797,-0.435 1.283,0.913 -0.478,1.235 -0.086,1.657 1.44,1.657 1.406,0 1.916,0.484 1.547,1.447 -0.313,0.793 -0.041,1.668 0.621,1.951 0.845,0.351 0.734,0.921 -0.444,1.878 -1.513,1.252 -1.451,1.545 0.754,3.674 1.385,1.33 2.141,2.256 2.252,2.801 l -0.359,0.545 c -0.625,0.16 -2.028,-0.124 -4.24,-0.832 -5.389,-1.729 -9.381,-2.794 -12.442,-3.213 l -3.223,-11.732 c 0.35,-0.185 0.752,-0.486 1.217,-0.91"
           style="fill:#afd1e2;fill-opacity:1;fill-rule:nonzero;stroke:none"
           id="path110209"
           inkscape:connector-curvature="0" /><path
           d="m 295.572,369.241 -0.301,-0.568 c 0.608,0.058 0.686,0.204 0.301,0.568"
           style="fill:#ceb39d;fill-opacity:1;fill-rule:nonzero;stroke:none"
           id="path110211"
           inkscape:connector-curvature="0" /><path
           d="m 293.635,358.561 c 0.107,0.166 0.246,0.352 0.42,0.561 1.062,1.285 1.006,1.448 -0.381,0.915 -1.912,-0.736 -2.194,0.632 -0.467,2.349 1.729,1.736 1.063,2.125 -0.525,1.392 l -2.713,-5.127 z"
           style="fill:#ceb39d;fill-opacity:1;fill-rule:nonzero;stroke:none"
           id="path110213"
           inkscape:connector-curvature="0" /><path
           d="m 311.635,358.529 -3.018,0.19 c -1.656,0.103 -4.115,0.091 -5.465,-0.031 -2.117,-0.197 -2.277,-0.007 -1.123,1.379 2.19,2.65 0.645,2.639 -3.232,0 -0.951,-0.647 -1.815,-1.171 -2.563,-1.57 l 14.918,-0.366 z"
           style="fill:#ceb39d;fill-opacity:1;fill-rule:nonzero;stroke:none"
           id="path110215"
           inkscape:connector-curvature="0" /><path
           d="m 299.387,373.687 c 0.574,0.02 0.187,0.531 -0.842,1.171 l -0.789,-1.49 c 0.711,0.193 1.31,0.314 1.631,0.319"
           style="fill:#ceb39d;fill-opacity:1;fill-rule:nonzero;stroke:none"
           id="path110217"
           inkscape:connector-curvature="0" /><path
           d="m 299.447,376.169 c 2.473,-0.221 4.428,0.161 5.344,1.075 2.029,2.019 0.875,3.232 -3.176,3.42 l -2.367,-4.476 c 0.066,-0.007 0.131,-0.013 0.199,-0.019"
           style="fill:#ceb39d;fill-opacity:1;fill-rule:nonzero;stroke:none"
           id="path110219"
           inkscape:connector-curvature="0" /><path
           d="m 258.488,343.506 c 0.346,0 1.186,-0.325 2.475,-1.019 1.588,-0.845 1.961,-0.704 1.98,0.754 0.032,1.717 0.078,1.726 1.063,0.027 0.574,-0.971 1.447,-1.523 1.949,-1.223 0.504,0.309 2.061,-0.182 3.455,-1.096 2.514,-1.645 2.526,-1.619 2.543,1.227 0.01,1.588 0.352,2.368 0.754,1.759 0.885,-1.318 4.67,-3.428 6.188,-3.428 0.582,0 1.132,1.024 1.185,2.263 0.1,2.147 0.119,2.135 0.781,-0.253 0.393,-1.378 0.916,-2.299 1.166,-2.071 0.116,0.107 0.422,0.097 0.828,-0.002 l 7.114,18.207 z"
           style="fill:#e0e2c2;fill-opacity:1;fill-rule:nonzero;stroke:none"
           id="path110221"
           inkscape:connector-curvature="0" /><path
           d="m 253.82,266.136 26.1,66.797 c -6.221,1.192 -14.371,4.719 -19.932,8.832 -1.195,0.887 -1.73,1.455 -1.674,1.657 L 230.539,330.06 Z"
           style="fill:#e0e2c2;fill-opacity:1;fill-rule:nonzero;stroke:none"
           id="path110223"
           inkscape:connector-curvature="0" /><path
           d="m 263.623,151.158 33.902,-41.051 6.805,47.327 c -3.385,1.86 -5.83,3.463 -6.258,4.262 -1.404,2.632 -0.613,2.564 1.949,-0.178 1.124,-1.215 2.071,-1.829 2.071,-1.386 0,0.453 0.674,0.251 1.508,-0.443 0.427,-0.352 0.738,-0.569 0.961,-0.644 l 1.951,13.556 z"
           style="fill:#87bbd9;fill-opacity:1;fill-rule:nonzero;stroke:none"
           id="path110225"
           inkscape:connector-curvature="0" /><path
           d="m 306.803,259.421 c 1.103,0.009 2.197,-0.103 2.881,-0.373 1.375,-0.541 0.701,-0.761 -2.319,-0.814 -2.355,-0.039 -4.271,0.103 -4.271,0.311 0,0.534 1.857,0.865 3.709,0.876 m 2.974,-38.419 5.485,19.958 c -7.889,2.597 -9.319,4.781 -2.155,4.366 0.829,-0.039 1.811,0.411 2.202,1.036 0.328,0.536 0.81,0.628 1.505,0.255 l 3.223,11.732 c -4.428,-0.606 -6.902,0.138 -8.814,2.176 -1.832,1.951 -1.942,2.48 -0.723,2.952 0.822,0.313 2.854,0.062 4.518,-0.572 4.298,-1.617 5.216,0 1.636,2.897 -2.511,2.024 -2.679,2.398 -1.004,2.258 3.518,-0.302 5.526,0.091 5.526,1.127 0,0.552 -0.793,1.031 -1.758,1.073 -1.428,0.05 -1.377,0.24 0.344,0.933 1.166,0.473 2.386,1.571 2.73,2.453 0.541,1.394 0.342,1.466 -1.596,0.381 -2.941,-1.652 -18.134,-1.706 -25.564,-0.462 l -41.512,-7.429 z"
           style="fill:#c5e0e0;fill-opacity:1;fill-rule:nonzero;stroke:none"
           id="path110227"
           inkscape:connector-curvature="0" /><path
           d="m 304.037,314.388 c 0.582,0 1.067,-0.452 1.067,-1.004 0,-1.283 -0.713,-1.283 -1.51,0 -0.338,0.552 -0.149,1.004 0.443,1.004 m -8.705,-40.823 c -1.432,0.24 -2.576,0.529 -3.289,0.862 -3.084,1.447 -3.244,1.66 -1.166,1.729 1.908,0.072 2.301,0.483 1.859,2.17 -0.49,1.877 -0.381,1.958 1.127,0.652 2.198,-1.878 5.215,-2.932 5.215,-1.816 0,0.483 0.902,0.662 2.008,0.38 1.127,-0.3 2.008,-0.031 2.008,0.595 0,0.613 1.125,1.092 2.511,1.092 3.336,0 3.176,1.005 -0.693,4.182 l -3.234,2.632 5.377,-0.847 c 5.531,-0.871 7.543,-0.508 6.494,1.197 -1.029,1.669 1.67,3.887 4.705,3.887 1.006,0 1.752,0.145 2.228,0.365 l -0.8,1.792 c -0.231,0.074 -0.483,0.144 -0.766,0.206 -1.103,0.231 -0.857,0.396 0.498,0.387 l -2.984,6.649 c -0.912,-0.091 -0.985,0.281 -0.586,1.307 v 0.003 l -0.449,1.002 c -0.086,-0.044 -0.176,-0.096 -0.276,-0.159 -0.742,-0.454 -2.502,-0.914 -3.928,-1.036 -1.416,-0.109 -3.709,-0.521 -5.084,-0.902 l -2.507,-0.694 2.759,2.35 c 3.196,2.742 3.655,4.349 0.817,2.822 -2.805,-1.497 -4.854,-1.363 -3.301,0.191 2.262,2.262 1.369,4.041 -0.943,1.888 -1.174,-1.104 -3.545,-2.668 -5.27,-3.485 -6.141,-2.913 -22.695,1.055 -22.695,5.424 0,0.887 -0.565,2.141 -1.227,2.803 -0.802,0.804 -0.822,1.188 -0.088,1.188 0.602,0 1.344,-0.673 1.657,-1.507 0.369,-0.957 1.81,-1.459 3.896,-1.375 1.809,0.057 4.311,-0.222 5.557,-0.636 1.859,-0.603 2.258,-0.331 2.258,1.386 v 2.071 l 3.427,-2.01 c 2.449,-1.447 3.627,-1.718 4.141,-0.872 0.4,0.632 0.098,1.588 -0.666,2.099 -1.186,0.802 4.672,0.692 8.672,-0.161 0.551,-0.109 2.029,0.13 3.293,0.533 2.117,0.682 2.16,0.891 0.693,2.51 -1.476,1.639 -1.398,1.798 0.977,2.393 0.384,0.096 0.73,0.213 1.033,0.344 l -6.332,14.105 c -1.555,-0.778 -4.141,-1.327 -6.637,-1.361 -3.957,-0.061 -4.521,0.141 -2.793,0.914 1.959,0.873 2.149,1.688 1.287,5.522 -0.041,0.184 -1.588,-0.609 -3.457,-1.754 -1.859,-1.154 -4.902,-2.08 -6.781,-2.08 -1.178,0.003 -2.516,0.154 -3.957,0.431 l -26.1,-66.797 z"
           style="fill:#d3dfc6;fill-opacity:1;fill-rule:nonzero;stroke:none"
           id="path110229"
           inkscape:connector-curvature="0" /><path
           d="m 282.855,340.444 c 0.477,-0.117 1.096,-0.36 1.715,-0.691 1.7,-0.903 2.34,-0.754 3.455,0.785 0.756,1.043 1.76,1.648 2.233,1.355 0.472,-0.29 0.551,0.632 0.189,2.068 -0.631,2.502 -0.543,2.574 2.1,1.569 2.146,-0.812 3.32,-0.824 3.369,-0.133 l -0.57,1.274 c -0.088,0.117 -0.182,0.239 -0.289,0.367 -0.698,0.847 -0.885,1.231 -0.502,1.394 l -4.586,10.219 z"
           style="fill:#d3dfc6;fill-opacity:1;fill-rule:nonzero;stroke:none"
           id="path110231"
           inkscape:connector-curvature="0" /><path
           d="m 231.487,402.895 c -4.402,-0.16 -5.861,0.148 -8.836,1.928 l 0.331,-11.046 z"
           style="fill:#df9689;fill-opacity:1;fill-rule:nonzero;stroke:none"
           id="path110233"
           inkscape:connector-curvature="0" /><path
           d="m 239.396,432.931 c -0.533,0 -1.828,3.111 -2.29,5.491 -0.2,1.078 -1.036,2.678 -1.85,3.58 -0.811,0.898 -1.473,2.266 -1.473,3.012 0,0.187 0.068,0.263 0.22,0.252 0.46,-0.027 1.547,-0.899 2.791,-2.293 2.069,-2.312 3.013,-4.399 3.013,-6.684 0,-1.835 -0.19,-3.358 -0.411,-3.358 m -2.258,-9.137 c -0.987,1.157 -2.354,2.102 -3.048,2.102 -1.165,0 -3.906,3.885 -3.164,4.49 0.141,0.118 0.354,0.144 0.624,0.126 1.908,-0.141 6.552,-3.34 7.283,-5.275 1.306,-3.444 0.563,-4.082 -1.695,-1.443 m 27.905,16.357 c -0.633,1.013 -1.598,1.82 -2.131,1.82 -1.195,0 -4.367,-5.621 -5.053,-8.98 -0.509,-2.479 -9.754,-10.401 -11.15,-9.544 -0.393,0.248 -0.584,2.928 -0.461,5.968 0.121,3.035 -0.18,5.522 -0.664,5.522 -0.482,0 -0.734,1.668 -0.563,3.706 0.262,3.088 0.764,3.835 3.104,4.456 2.434,0.647 2.742,0.503 2.23,-1.097 -0.914,-2.887 1.536,-3.622 3.487,-1.036 1.035,1.367 1.998,1.881 2.381,1.257 0.691,-1.108 4.679,-0.522 4.679,0.689 0,0.934 -5.002,5.614 -5.865,5.493 -0.373,-0.051 -1.459,0.124 -2.422,0.376 -2.834,0.743 -0.994,2.156 2.01,1.538 5.031,-1.031 9.574,-0.838 10.018,0.442 0.228,0.69 -0.233,1.254 -1.036,1.254 -0.816,0 -2.019,0.685 -2.705,1.507 -0.681,0.823 -1.646,1.246 -2.14,0.941 -0.481,-0.301 -0.871,-0.194 -0.871,0.251 0,0.45 1.353,1.722 3.011,2.826 3.047,2.03 3.877,3.516 1.981,3.516 -1.828,0 -8.41,-3.044 -9.293,-4.3 -0.522,-0.747 -0.621,-0.358 -0.252,0.972 0.332,1.199 0.172,2.44 -0.35,2.764 -1.086,0.675 -5.146,-5.785 -5.146,-8.192 0,-0.891 -0.299,-1.333 -0.662,-0.975 -0.35,0.359 -1.284,-0.11 -2.037,-1.067 -1.196,-1.519 -1.295,-1.108 -0.846,3.169 0.41,3.976 1.355,5.914 5.023,10.203 2.491,2.913 4.551,5.949 4.551,6.749 0,2.413 -5.041,0.826 -6.086,-1.912 -1.66,-4.365 -3.488,-2.853 -3.113,2.571 0.279,3.961 -0.08,5.453 -1.76,7.254 l -2.099,2.229 -0.131,-2.45 c -0.053,-1.347 -0.162,-5.411 -0.25,-9.041 l -0.121,-6.592 -3.707,3.827 c -4.28,4.46 -4.852,4.639 -4.833,1.573 0.012,-1.245 1.76,-4.163 3.859,-6.501 3.372,-3.739 3.847,-4.92 4.048,-9.886 0.16,-3.751 -0.141,-5.427 -0.845,-4.993 -0.584,0.362 -1.033,1.31 -1.033,2.106 0,0.796 -0.454,1.443 -1.006,1.443 -0.552,0 -1.005,1.749 -1.005,3.892 0,4.46 -2.533,7.576 -4.109,5.084 -0.511,-0.792 -0.713,-1.972 -0.472,-2.635 0.532,-1.466 -2.361,-0.511 -4.3,1.413 -0.732,0.72 -1.908,1.288 -2.639,1.288 -2.716,0 -2.27,-2.834 1.032,-6.628 3.937,-4.505 4.152,-5.404 1.538,-6.089 -1.275,-0.335 -1.717,-1.116 -1.375,-2.414 0.561,-2.163 3.253,-2.549 5.081,-0.724 1.367,1.368 1.41,1.295 1.638,-2.479 0.19,-3.151 0.011,-3.223 -3.425,-1.257 -3.365,1.927 -4.017,1.877 -4.017,-0.408 0,-1.066 1.466,-3.085 3.263,-4.489 2.454,-1.916 2.724,-2.427 1.124,-2.007 -1.375,0.361 -2.331,0 -2.718,-1.037 -0.669,-1.742 -1.244,-2.025 -4.559,-0.051 l 0.583,-19.409 c 0.352,-0.137 0.806,-0.222 1.302,-0.222 1.104,0 2.007,0.45 2.007,1.001 0,0.557 1.016,0.995 2.261,0.976 l 2.26,-0.03 -2.479,-2.042 c -1.932,-1.603 -2.173,-2.228 -1.098,-2.886 1.508,-0.934 4.108,-0.252 5.396,1.408 0.472,0.602 0.591,-0.152 0.252,-1.695 -0.503,-2.3 -0.271,-2.761 1.416,-2.761 0.167,0 0.331,0.015 0.488,0.039 l 31.324,33.577 c -0.165,0.18 -0.331,0.425 -0.52,0.729"
           style="fill:#df9689;fill-opacity:1;fill-rule:nonzero;stroke:none"
           id="path110235"
           inkscape:connector-curvature="0" /><path
           d="m 263.623,151.158 42.889,21.443 1.004,14.871 c -4.737,1.664 -8.739,3.302 -9.696,4.139 -2.359,2.08 -2.23,3.529 0.252,2.736 1.123,-0.351 2.008,-0.171 2.008,0.411 0,1.086 1.508,0.773 6.531,-1.416 0.346,-0.152 0.778,-0.297 1.27,-0.434 l 1.896,28.094 z"
           style="fill:#9ccce2;fill-opacity:1;fill-rule:nonzero;stroke:none"
           id="path110237"
           inkscape:connector-curvature="0" /><path
           d="m 220.532,239.178 43.091,-88.02 46.154,69.844 z"
           style="fill:#b6deec;fill-opacity:1;fill-rule:nonzero;stroke:none"
           id="path110239"
           inkscape:connector-curvature="0" /><path
           d="m 249.693,406.778 c 1.295,-0.629 3.444,-0.865 4.774,-0.534 1.373,0.347 2.418,0.172 2.418,-0.407 0,-0.564 -0.432,-1.036 -0.946,-1.036 -0.501,0 -1.564,-0.232 -2.349,-0.533 -0.785,-0.301 -2.502,0.411 -3.828,1.569 l -2.422,2.106 z m -2.691,8.322 c 0.269,1.952 0.84,2.227 4.109,1.945 2.903,-0.252 3.766,0.038 3.766,1.257 0,0.868 0.672,1.569 1.504,1.569 0.828,0 1.51,0.637 1.51,1.413 0,0.677 0.371,1.039 1.093,1.035 0.245,-0.003 0.543,-0.045 0.856,-0.125 1.656,-0.434 1.264,-1.032 -2.611,-3.987 -2.514,-1.915 -5.448,-3.565 -6.502,-3.641 -1.045,-0.08 -1.879,-0.476 -1.879,-0.911 0,-0.437 -0.51,-0.819 -1.092,-0.819 -0.594,0 -0.938,1.018 -0.754,2.264 m 13.9,-10.36 c 0,0.652 0.496,0.864 1.127,0.468 0.805,-0.495 0.59,-1.131 -0.685,-2.072 -2.59,-1.888 -3.453,-1.687 -3.453,0.789 0,1.112 0.089,1.592 0.47,1.535 0.233,-0.034 0.565,-0.267 1.035,-0.659 1.125,-0.929 1.506,-0.944 1.506,-0.061 m 12.586,-2.951 c 0.866,0 1.319,-0.454 0.975,-1.005 -0.803,-1.3 -2.51,-1.3 -2.51,0 0,0.551 0.67,1.005 1.535,1.005 m -25.554,-0.442 c 0.865,0.529 1.337,-1.612 0.974,-4.365 -0.053,-0.405 0.219,-1.214 0.686,-2.148 l 6.4,0.255 c 0.104,1.639 0.25,1.637 0.608,0.164 0.011,-0.046 0.025,-0.092 0.037,-0.139 l 8.59,0.342 c 0.181,0.185 0.425,0.3 0.697,0.3 0.211,0 0.408,-0.093 0.568,-0.25 l 23.047,0.915 c -0.535,0.413 -1.455,0.919 -2.49,1.346 -1.639,0.682 -2.883,1.755 -2.762,2.388 0.123,0.64 -1.154,1.199 -2.851,1.257 -3.516,0.113 -8.631,2.502 -6.723,3.138 0.693,0.232 1.258,1.07 1.258,1.851 0,1.595 -5.026,2.003 -6.59,0.537 -1.52,-1.421 -5.465,-2.35 -5.465,-1.288 0,0.53 1.143,1.242 2.57,1.6 2.141,0.537 2.381,0.929 1.387,2.136 -0.992,1.193 -0.846,1.448 0.684,1.474 2.238,0.038 6.015,2.711 5.121,3.611 -0.352,0.346 -2.7,0.845 -5.209,1.131 -5.026,0.567 -5.006,0.549 -3.522,3.325 0.969,1.801 1.207,1.827 3.428,0.377 2.228,-1.466 2.42,-1.413 3.045,0.533 0.361,1.146 1.084,1.824 1.596,1.508 0.511,-0.316 0.943,-0.114 0.943,0.472 0,0.587 0.906,1.066 2.012,1.066 1.103,0 2.007,0.644 2.007,1.413 0,1.536 -2.119,2.606 -5.111,2.606 -2.283,0 -2.594,1.842 -0.443,2.669 0.822,0.317 1.285,0.907 1.033,1.318 -0.248,0.411 0.664,1.337 2.041,2.071 3.385,1.814 2.551,3.485 -1.76,3.485 h -3.547 l 2.547,3.329 c 1.975,2.598 2.244,3.572 1.283,4.52 -0.953,0.945 -1.927,0.427 -4.521,-2.387 -2.527,-2.743 -3.188,-3.317 -3.939,-2.485 l -31.324,-33.577 c 0.888,0.136 1.575,0.63 1.611,1.218 0.062,0.857 0.252,0.804 0.632,-0.16 0.404,-1.024 0.914,-0.746 1.847,1.005 l 1.288,2.42 1.256,-2.762 c 0.693,-1.515 0.945,-3.085 0.533,-3.484 -0.403,-0.404 -3.998,-0.899 -8.008,-1.101 -0.696,-0.036 -1.328,-0.065 -1.911,-0.086 l -8.505,-9.118 15.805,0.628 c 1.227,1.125 2.056,2.465 2.117,3.773 0.088,1.828 0.191,1.775 0.823,-0.411 0.367,-1.279 0.316,-2.151 -0.474,-3.263 l 7.286,0.289 c -0.984,2.888 -1.447,6.035 -0.605,6.554"
           style="fill:#dc9f90;fill-opacity:1;fill-rule:nonzero;stroke:none"
           id="path110241"
           inkscape:connector-curvature="0" /><path
           d="m 250.891,392.683 c 1.724,-2.419 2.447,-2.781 3.576,-1.847 0.779,0.643 1.441,2.338 1.502,3.797 0.01,0.166 0.017,0.315 0.025,0.456 l -6.4,-0.255 c 0.344,-0.688 0.791,-1.442 1.297,-2.151"
           style="fill:#dfba9f;fill-opacity:1;fill-rule:nonzero;stroke:none"
           id="path110243"
           inkscape:connector-curvature="0" /><path
           d="m 228.735,390.762 c 0.552,0.63 1.675,1.037 2.625,0.915 2.496,-0.314 5.468,0.933 7.427,2.728 l -15.805,-0.628 z"
           style="fill:#dfba9f;fill-opacity:1;fill-rule:nonzero;stroke:none"
           id="path110245"
           inkscape:connector-curvature="0" /><path
           d="m 266.932,394.35 c 0,-1.808 5.863,-6.82 7.091,-6.055 0.512,0.309 0.944,1.436 0.944,2.51 0,1.067 0.453,1.939 1.035,1.939 0.582,0 0.793,0.57 0.443,1.256 -0.363,0.693 0.19,0.229 1.225,-1.036 1.031,-1.264 2.23,-1.98 2.633,-1.565 0.41,0.411 1.724,0.892 2.951,1.063 2.723,0.381 6.783,2.38 6.783,3.367 0,0.144 -0.183,0.353 -0.496,0.592 l -23.047,-0.915 c 0.264,-0.254 0.438,-0.677 0.438,-1.156"
           style="fill:#dfba9f;fill-opacity:1;fill-rule:nonzero;stroke:none"
           id="path110247"
           inkscape:connector-curvature="0" /><path
           d="m 249.854,385.714 c 0.552,0 1.005,-2.263 1.005,-5.024 0,-0.567 -0.002,-1.072 -0.007,-1.527 l 27.994,-14.679 c 0.074,0.44 -0.012,1.091 -0.201,2.049 -0.766,3.798 1.597,4.853 4.048,1.791 1.678,-2.091 7.321,-3.557 7.344,-1.92 0,0.412 -1.467,1.951 -3.267,3.455 -2.499,2.091 -2.842,2.742 -1.475,2.765 0.982,0.018 2.037,-0.613 2.35,-1.448 0.32,-0.822 0.962,-1.287 1.418,-1.005 0.458,0.293 1.091,0.06 1.445,-0.503 0.34,-0.552 1.836,-1.032 3.295,-1.032 0.654,0 1.138,0.006 1.468,0.037 l 0.301,0.568 c -0.217,0.202 -0.578,0.474 -1.076,0.838 -1.877,1.386 -1.85,1.47 0.873,2.514 0.793,0.301 1.649,0.576 2.387,0.775 l 0.789,1.49 c -0.145,0.089 -0.303,0.181 -0.473,0.276 -2.408,1.331 -2.42,1.384 1.176,1.054 l 2.367,4.476 c -0.365,0.017 -0.75,0.026 -1.162,0.026 -2.773,0 -4.269,0.422 -3.889,1.032 1.268,2.053 -2.441,2.091 -6.619,0.072 -5.123,-2.483 -6.08,-2.601 -5.312,-0.601 0.369,0.952 -0.012,1.504 -1.006,1.504 -0.986,0 -1.367,0.564 -1.006,1.508 0.682,1.767 0.33,1.828 -2.973,0.57 -2.162,-0.822 -2.388,-0.692 -1.947,1.006 0.522,2.019 -1.158,2.723 -2.262,0.933 -0.351,-0.551 -2.472,-1.976 -4.742,-3.133 -3.644,-1.859 -4.582,-1.947 -8.166,-0.884 -3.336,1.005 -3.758,1.386 -2.351,2.17 0.943,0.523 1.728,1.638 1.728,2.484 0,1.185 -1.025,1.466 -4.553,1.253 -3.421,-0.209 -5,0.213 -6.464,1.698 -0.866,0.875 -1.715,2.63 -2.352,4.491 l -7.286,-0.289 c -0.488,-0.687 -1.261,-1.464 -2.39,-2.484 -1.148,-1.03 -3.123,-2.455 -5.247,-3.818 l 15.232,-7.987 c -0.026,2.591 0.351,5.499 1.006,5.499"
           style="fill:#dfba9f;fill-opacity:1;fill-rule:nonzero;stroke:none"
           id="path110249"
           inkscape:connector-curvature="0" /><path
           d="m 262.602,389.731 c 2.046,0 2.238,0.282 1.347,1.946 -1.318,2.453 -1.318,3.378 -0.031,2.574 0.553,-0.342 1.002,-0.14 1.002,0.442 0,0.299 0.119,0.569 0.309,0.763 l -8.59,-0.342 c 0.808,-3.044 3.371,-5.383 5.963,-5.383"
           style="fill:#dfba9f;fill-opacity:1;fill-rule:nonzero;stroke:none"
           id="path110251"
           inkscape:connector-curvature="0" /><path
           d="m 292.682,363.778 c -0.774,-0.359 -1.768,-0.983 -2.809,-1.852 -0.904,-0.76 -1.693,-1.409 -2.402,-1.964 l 2.498,-1.311 z"
           style="fill:#dfba9f;fill-opacity:1;fill-rule:nonzero;stroke:none"
           id="path110253"
           inkscape:connector-curvature="0" /><path
           d="m 253.82,266.136 -33.288,-26.958 89.245,-18.176 z"
           style="fill:#cde9ef;fill-opacity:1;fill-rule:nonzero;stroke:none"
           id="path110255"
           inkscape:connector-curvature="0" /><path
           d="m 263.623,151.158 -3.627,-42.12 c 0.621,-0.341 1.488,-1.316 2.225,-2.56 1.838,-3.091 4.09,-4.238 3.043,-1.535 -1.186,3.093 0.683,1.406 2.041,-1.85 0.638,-1.522 1.203,-2.413 1.927,-2.865 l 28.293,9.879 z"
           style="fill:#82afd4;fill-opacity:1;fill-rule:nonzero;stroke:none"
           id="path110257"
           inkscape:connector-curvature="0" /><path
           d="m 260.051,97.021 c -0.319,1.018 -0.59,2.172 -0.803,3.355 l -0.322,-3.747 z"
           style="fill:#82afd4;fill-opacity:1;fill-rule:nonzero;stroke:none"
           id="path110259"
           inkscape:connector-curvature="0" /><path
           d="m 232.777,367.631 c 0.553,0 1.006,-0.19 1.006,-0.434 0,-0.251 -0.453,-0.731 -1.006,-1.075 -0.552,-0.342 -1.006,-0.141 -1.006,0.442 0,0.582 0.454,1.067 1.006,1.067 m 5.023,2.006 c 0.552,0 1.001,-0.189 1.001,-0.429 0,-0.251 -0.449,-0.736 -1.001,-1.075 -0.552,-0.343 -1.006,-0.14 -1.006,0.442 0,0.582 0.454,1.062 1.006,1.062 m 4.018,2.513 c 0.141,0.092 0.26,0.142 0.37,0.162 0.362,0.061 0.632,-0.162 0.632,-0.595 0,-0.591 -0.449,-1.074 -1.002,-1.074 -1.287,0 -1.287,0.712 0,1.507 m 8.479,-1.979 c 0.058,0.011 0.146,-0.08 0.219,-0.251 0.271,-0.674 0.283,-2.03 0.031,-3.013 -0.264,-0.975 -0.484,-0.434 -0.502,1.226 -0.02,1.246 0.068,2.03 0.252,2.038 m -23.047,-4.552 c 0.816,1.319 2.51,1.327 2.51,0 0,-0.559 -1.244,-1.515 -2.761,-2.098 -0.122,-0.046 -0.26,-0.095 -0.411,-0.143 l 3.951,-33.318 27.775,13.362 c 0.016,0.056 0.073,0.083 0.174,0.084 l 31.481,15.145 -2.498,1.311 c -4.19,-3.27 -5.633,-3.13 -11.658,-1.304 -7.397,2.232 -12.348,5.034 -13.844,7.815 -0.914,1.699 -0.705,1.943 1.476,1.82 1.375,-0.08 2.711,-0.845 2.983,-1.699 0.271,-0.841 1.447,-1.606 2.601,-1.698 1.7,-0.118 1.998,0.282 1.539,2.011 -0.502,1.927 -0.293,1.858 1.797,-0.564 1.287,-1.496 3.336,-2.73 4.582,-2.73 1.225,0 1.776,0.148 1.899,0.871 l -27.994,14.679 c -0.039,-3.639 -0.278,-3.867 -1.342,-2.804 -0.438,0.438 -0.643,2.072 -0.662,3.856 l -15.232,7.987 c -1.52,-0.976 -3.117,-1.922 -4.545,-2.672 l -4.811,-2.525 2.144,-18.074 c 0.37,0.179 0.681,0.423 0.846,0.688"
           style="fill:#e8cead;fill-opacity:1;fill-rule:nonzero;stroke:none"
           id="path110261"
           inkscape:connector-curvature="0" /><path
           d="m 223.633,388.302 c 0.238,0.292 0.481,0.622 0.724,0.994 1.275,1.939 1.911,2.251 2.551,1.258 0.693,-1.086 0.987,-1.075 1.691,0.03 0.04,0.061 0.086,0.12 0.136,0.178 l -5.753,3.015 z"
           style="fill:#e8cead;fill-opacity:1;fill-rule:nonzero;stroke:none"
           id="path110263"
           inkscape:connector-curvature="0" /><path
           d="m 217.425,300.324 c -3.645,-1.946 -5.744,-2.498 -5.744,-1.504 0,0.62 6.901,3.515 8.376,3.515 0.624,0 -0.572,-0.903 -2.632,-2.011 m -17.724,-17.033 54.119,-17.155 -23.281,63.924 z"
           style="fill:#ebf0d3;fill-opacity:1;fill-rule:nonzero;stroke:none"
           id="path110265"
           inkscape:connector-curvature="0" /><path
           d="m 193.66,177.521 c -1.668,-0.435 -2.061,-0.301 -1.317,0.442 0.441,0.442 1.154,0.682 1.789,0.692 0.21,0 0.411,0 0.59,-0.06 0.755,-0.251 0.294,-0.711 -1.062,-1.074 m -19.097,-1.839 0.763,-0.823 1.729,2.631 c 1.566,2.4 1.787,2.448 2.701,0.812 0.742,-1.334 1.207,-1.436 1.789,-0.498 0.553,0.901 0.964,0.65 1.444,-0.877 0.685,-2.159 2.574,-3.024 2.574,-1.165 0,0.552 1.246,1.016 2.762,1.006 h 2.76 l -3.011,-1.597 c -1.939,-1.028 -4.541,-1.399 -7.282,-1.097 -2.343,0.252 -4.011,0.041 -3.71,-0.442 0.783,-1.266 -0.654,-1.051 -3.648,0.488 l -5.388,-7.442 95.577,-15.52 -43.091,88.02 z"
           style="fill:#bee1ed;fill-opacity:1;fill-rule:nonzero;stroke:none"
           id="path110267"
           inkscape:connector-curvature="0" /><path
           d="m 202.325,99.069 c 0.387,-3.317 1.942,-4.087 3.892,-1.811 1.656,1.927 1.889,1.958 3.115,0.37 1.204,-1.565 1.344,-1.547 1.908,0.472 0.369,1.305 1.165,1.98 1.976,1.668 0.865,-0.331 1.608,0.454 2.042,2.16 0.472,1.857 0.933,2.323 1.478,1.446 0.43,-0.704 1.724,-1.428 2.89,-1.596 1.626,-0.251 2.594,0.663 4.3,4.167 2.202,4.531 4.521,6.281 3.324,2.514 -0.772,-2.434 -0.189,-2.491 3.043,-0.374 1.369,0.894 2.514,2.584 2.576,3.767 0.098,1.718 0.227,1.791 0.6,0.374 0.761,-2.925 2.32,-0.895 2.351,3.085 0.03,3.001 0.213,3.362 1.035,1.937 0.565,-0.967 1.969,-1.759 3.112,-1.759 1.98,0 2.054,-0.362 1.41,-7.784 -0.454,-5.184 -1.498,-9.415 -3.135,-12.648 -0.548,-1.079 -1.045,-2.091 -1.445,-2.935 l 22.129,4.507 0.322,3.747 c -0.727,4.061 -0.771,8.449 0.211,8.775 0.141,0.046 0.324,0.003 0.537,-0.113 l 3.627,42.12 z"
           style="fill:#8eb1d5;fill-opacity:1;fill-rule:nonzero;stroke:none"
           id="path110269"
           inkscape:connector-curvature="0" /><path
           d="m 183.553,135.578 c -1.287,0 -1.287,0.716 0,1.509 0.14,0.091 0.262,0.141 0.373,0.159 0.362,0.063 0.632,-0.159 0.632,-0.59 0,-0.594 -0.454,-1.078 -1.005,-1.078 m -15.507,31.1 0.681,-4.625 c 0.474,0.079 0.764,0.015 0.764,-0.223 0,-0.335 -0.232,-0.72 -0.581,-1.017 l 0.287,-1.957 c 0.66,0.049 1.456,0.225 2.241,0.521 2.373,0.895 2.822,0.835 2.38,-0.312 -0.38,-1.012 -0.03,-1.196 1.318,-0.724 1.577,0.554 1.668,0.423 0.572,-0.749 -0.648,-0.689 -2.251,-1.047 -6.15,-1.179 l 2.729,-18.534 c 1.174,1.013 2.438,2.183 3.702,3.447 3.556,3.557 4.059,2.956 0.754,-0.903 -0.815,-0.956 -1.177,-2.49 -0.815,-3.428 0.575,-1.504 0.906,-1.417 3.195,0.725 l 2.613,2.379 -0.351,-2.51 c -0.312,-2.299 -0.997,-2.601 -8.378,-3.826 -0.038,-0.007 -0.074,-0.013 -0.111,-0.019 l 2.763,-18.764 c 1.526,0.321 1.8,0.202 0.863,-0.364 -0.166,-0.099 -0.426,-0.216 -0.758,-0.344 l 1.238,-8.414 c 0.473,-0.005 0.524,-0.366 0.16,-1.083 l 0.733,-4.977 c 0.417,-0.136 0.634,-0.467 0.634,-0.975 0,-1.877 0.926,-1.778 3.267,0.343 1.86,1.675 1.939,1.668 1.597,-0.252 -0.534,-3.065 5.042,-2.14 8.005,1.327 l 2.323,2.691 -0.655,-3.264 c -0.872,-4.317 1.649,-4.429 5.557,-0.251 1.546,1.657 2.943,3.014 3.134,3.014 0.202,0 0.422,-1.166 0.503,-2.601 0.015,-0.268 0.038,-0.52 0.065,-0.761 l 61.298,52.089 z"
           style="fill:#a6c6dd;fill-opacity:1;fill-rule:nonzero;stroke:none"
           id="path110271"
           inkscape:connector-curvature="0" /><path
           d="m 168.046,166.678 5.388,7.442 c -0.05,0.026 -0.099,0.051 -0.149,0.075 -1.577,0.824 -2.822,1.003 -3.013,0.443 -0.178,-0.533 -1.146,-0.662 -2.128,-0.281 -1.669,0.631 -1.627,0.841 0.43,3.042 l 2.201,2.35 2.289,-2.448 1.499,-1.619 45.969,63.496 -40.179,-27.388 c 0.397,0.013 0.877,0.048 1.443,0.106 1.002,0.098 1.757,-0.514 1.757,-1.405 0,-2.152 0.815,-1.981 3.206,0.682 l 2.037,2.258 -1.637,-2.732 c -0.883,-1.496 -1.596,-3.183 -1.596,-3.765 0,-1.547 4.933,-0.404 7.282,1.698 1.969,1.767 1.988,1.726 1.227,-0.724 -1.067,-3.404 -2.3,-4.12 -11.551,-6.901 -7.697,-2.311 -8.159,-2.342 -12.31,-0.754 -1.53,0.586 -3.255,1.027 -4.869,1.305 l -3.832,-2.612 z"
           style="fill:#d3ebe7;fill-opacity:1;fill-rule:nonzero;stroke:none"
           id="path110273"
           inkscape:connector-curvature="0" /><path
           d="m 226.588,363.378 c -1.718,-0.549 -5.184,-1.166 -8.067,-1.421 -4.98,-0.454 -5.826,-0.283 -6.782,1.504 -0.591,1.116 -1.063,2.513 -1.063,3.103 0,0.766 0.503,1.105 1.196,1.036 0.682,-0.061 1.535,-0.521 2.19,-1.347 2.038,-2.572 5.412,-2.911 7.282,-0.72 1.656,1.927 4.017,1.957 2.833,0.026 -0.324,-0.51 0.111,-0.941 0.933,-0.941 0.432,0 0.896,0.12 1.294,0.313 l -2.144,18.074 -1.408,-0.738 -4.546,2.267 -20.106,-39.741 c 0.293,0.235 0.748,0.77 1.454,1.621 1.57,1.878 1.981,2.018 1.981,0.694 0,-0.926 0.453,-1.417 1.006,-1.076 0.552,0.344 1.436,-0.544 1.976,-1.98 0.545,-1.424 1.68,-2.841 2.514,-3.165 0.834,-0.32 1.535,-1.203 1.535,-1.976 0,-0.773 0.723,-1.416 1.63,-1.416 0.662,0 1.532,-0.405 2.226,-0.994 l 3.437,-1.229 c 0.261,0.204 0.559,0.452 0.906,0.745 l 2.35,1.981 -1.79,-2.103 c -0.223,-0.264 -0.542,-0.536 -0.945,-0.81 l 14.059,-5.025 z"
           style="fill:#f3d7b3;fill-opacity:1;fill-rule:nonzero;stroke:none"
           id="path110275"
           inkscape:connector-curvature="0" /><path
           d="m 221.255,390.364 c 0.14,-0.09 0.026,-0.589 -0.223,-1.54 -0.671,-2.581 0.845,-2.661 2.601,-0.522 l -0.651,5.475 z"
           style="fill:#f3d7b3;fill-opacity:1;fill-rule:nonzero;stroke:none"
           id="path110277"
           inkscape:connector-curvature="0" /><path
           d="m 253.82,266.136 -54.119,17.155 5.901,-12.495 1.086,1.403 c 1.928,2.509 1.928,2.509 1.951,0.251 0.027,-3.043 1.817,-2.876 2.601,0.252 0.35,1.386 1.074,2.508 1.607,2.508 0.521,0 0.621,-0.478 0.252,-1.091 -0.485,-0.773 0.289,-0.908 2.57,-0.411 2.422,0.528 3.173,0.411 2.852,-0.534 -0.612,-1.852 -6.912,-4.993 -10.016,-4.993 -0.55,0 -1.091,-0.08 -1.567,-0.215 l 13.594,-28.788 z"
           style="fill:#e4f3e5;fill-opacity:1;fill-rule:nonzero;stroke:none"
           id="path110279"
           inkscape:connector-curvature="0" /><path
           d="m 195.355,405.993 c -2.841,-0.171 -5.553,-0.541 -5.995,-0.815 -2.417,-1.492 1.29,-3.875 5.763,-4.716 l 1.744,5.657 c -0.453,-0.05 -0.958,-0.092 -1.512,-0.126"
           style="fill:#ef9e87;fill-opacity:1;fill-rule:nonzero;stroke:none"
           id="path110281"
           inkscape:connector-curvature="0" /><path
           d="m 218.148,433.81 c -3.282,2.137 -6.467,3.71 -7.061,3.481 -2.098,-0.8 -0.761,-4.635 2.16,-6.246 l 2.956,-1.6 -2.704,-0.316 c -1.466,-0.174 -2.914,-0.944 -3.203,-1.694 -0.564,-1.467 1.946,-2.906 3.454,-1.977 0.502,0.308 0.944,0.084 0.944,-0.502 0,-0.583 0.792,-1.086 1.76,-1.132 1.276,-0.057 1.363,-0.221 0.338,-0.629 -1.062,-0.419 -0.852,-0.989 0.914,-2.319 l 2.354,-1.759 -4.201,-0.723 c -4.329,-0.731 -5.312,-2.346 -2.73,-4.487 0.972,-0.811 1.996,-0.891 3.13,-0.252 1.901,1.059 5.466,0.466 5.466,-0.909 0,-0.272 0.276,-0.52 0.709,-0.689 l -0.583,19.409 c -0.974,0.58 -2.183,1.353 -3.703,2.344"
           style="fill:#f4ae99;fill-opacity:1;fill-rule:nonzero;stroke:none"
           id="path110283"
           inkscape:connector-curvature="0" /><path
           d="m 222.651,404.823 c -0.413,0.247 -0.854,0.52 -1.338,0.827 -4.398,2.792 -7.624,3.26 -7.624,1.097 0,-0.476 1.245,-1.583 2.765,-2.449 l 2.761,-1.569 -3.515,0.659 c -3.477,0.636 -9.335,3.653 -11.894,6.154 -0.735,0.713 -2.201,1.288 -3.264,1.288 -2.053,0 -2.582,-1.943 -0.975,-3.549 0.5,-0.501 -0.483,-0.921 -2.7,-1.162 l -1.744,-5.657 c 1.643,-0.309 3.39,-0.409 4.974,-0.181 l 4.048,0.567 -2.822,-1.604 c -1.718,-0.967 -2.723,-2.273 -2.51,-3.297 0.48,-2.449 4.821,-1.627 7.594,1.447 1.287,1.432 3.035,2.368 4.018,2.136 1.386,-0.331 1.207,-0.667 -0.914,-1.542 -3.416,-1.405 -4.448,-3.066 -2.38,-3.858 0.894,-0.343 1.405,-1.204 1.123,-1.919 -0.27,-0.713 0.183,-1.547 0.975,-1.848 0.796,-0.301 1.447,-0.159 1.447,0.313 0,0.822 3.245,2.227 5.686,2.479 0.632,0.072 2.111,0.994 3.264,2.041 1.155,1.043 2.099,1.565 2.099,1.165 0,-0.977 -1.912,-2.824 -4.281,-4.199 l 5.538,1.615 z"
           style="fill:#f4ae99;fill-opacity:1;fill-rule:nonzero;stroke:none"
           id="path110285"
           inkscape:connector-curvature="0" /><path
           d="m 217.444,392.162 c -0.17,-0.099 -0.343,-0.197 -0.518,-0.29 -1.238,-0.667 -2.232,-1.65 -2.232,-2.202 0,-1.9 3.093,-2.19 4.993,-0.472 0.949,0.865 1.415,1.265 1.568,1.166 l 1.727,3.413 z"
           style="fill:#f7cea8;fill-opacity:1;fill-rule:nonzero;stroke:none"
           id="path110287"
           inkscape:connector-curvature="0" /><path
           d="m 218.019,384.677 c -2.651,1.325 -5.393,2.51 -6.086,2.643 -1.79,0.339 -1.55,-1.606 0.503,-4.018 1.577,-1.869 1.577,-1.919 0.026,-0.724 -0.941,0.724 -2.098,1.075 -2.57,0.781 -0.48,-0.289 -2.129,0.111 -3.675,0.913 -3.698,1.921 -4.852,1.822 -4.171,-0.319 0.442,-1.416 -0.03,-1.729 -2.448,-1.656 -1.661,0.049 -3.245,0.351 -3.55,0.651 -1.222,1.227 -4.46,-0.572 -4.46,-2.479 0,-1.538 0.495,-1.889 2.103,-1.467 2.018,0.522 2.025,0.473 0.35,-1.386 -1.817,-2.01 -1.527,-2.281 2.289,-1.98 1.748,0.142 2.11,-0.191 1.6,-1.539 -0.545,-1.412 -0.191,-1.644 1.888,-1.252 2.08,0.4 2.43,0.159 2.038,-1.348 -0.541,-2.057 0.099,-2.278 2.601,-0.946 2.465,1.307 5.576,-2.852 3.545,-4.74 -1.123,-1.056 -1.473,-1.014 -1.907,0.132 -0.301,0.782 -2.08,1.426 -4.049,1.505 -1.938,0.073 -3.282,-0.271 -2.982,-0.751 0.301,-0.495 -0.343,-0.642 -1.447,-0.354 -2.54,0.663 -2.612,-0.864 -0.13,-2.41 1.326,-0.823 1.726,-1.927 1.387,-3.736 -0.605,-3.184 -0.766,-3.203 -4.46,-0.1 -0.17,0.145 -0.345,0.285 -0.522,0.423 l 1.994,-12.442 c 1.314,-0.136 1.746,-0.68 1.762,-1.976 0.019,-1.248 0.058,-1.705 0.552,-1.309 l 20.106,39.741 z"
           style="fill:#f7cea8;fill-opacity:1;fill-rule:nonzero;stroke:none"
           id="path110289"
           inkscape:connector-curvature="0" /><path
           d="m 230.539,330.06 -14.059,5.025 c -1.552,-1.055 -4.356,-2.143 -7.723,-2.957 -6.062,-1.467 -8.973,-1.894 -11.369,-1.249 l 0.782,-16.098 c 0.097,0.023 0.194,0.048 0.293,0.079 3.805,1.209 4.829,-0.723 1.104,-2.068 -0.428,-0.153 -0.855,-0.293 -1.28,-0.419 l 0.66,-13.582 c 0.461,0.396 0.951,0.869 1.461,1.416 3.226,3.434 5.134,4.196 7.508,2.981 2.749,-1.417 2.056,-2.559 -1.258,-2.079 -3.454,0.514 -3.968,-1.014 -1.478,-4.583 1.459,-2.079 1.459,-2.227 -0.41,-2.227 -1.097,0 -2.682,-0.674 -3.517,-1.507 -0.525,-0.527 -1.266,-0.997 -1.953,-1.268 l 0.401,-8.233 z"
           style="fill:#f2ecc8;fill-opacity:1;fill-rule:nonzero;stroke:none"
           id="path110291"
           inkscape:connector-curvature="0" /><path
           d="m 213.216,335.766 c 1.019,-1.383 1.336,-1.59 2.743,-0.494 l -3.437,1.229 c 0.263,-0.223 0.502,-0.472 0.694,-0.735"
           style="fill:#f2ecc8;fill-opacity:1;fill-rule:nonzero;stroke:none"
           id="path110293"
           inkscape:connector-curvature="0" /><path
           d="m 206.938,267.966 c -0.792,-0.226 -1.402,-0.609 -1.567,-1.042 -0.301,-0.762 -2.258,-1.202 -5.122,-1.153 -2.552,0.038 -4.643,-0.271 -4.643,-0.695 0,-1.929 3.489,-4.029 6.25,-3.734 1.638,0.167 3.055,-0.085 3.134,-0.595 0.271,-1.68 -5.614,-2.613 -19.929,-3.177 -14.736,-0.566 -21.41,-1.21 -22.455,-2.143 l 57.926,-16.249 z"
           style="fill:#f0f8de;fill-opacity:1;fill-rule:nonzero;stroke:none"
           id="path110295"
           inkscape:connector-curvature="0" /><path
           d="m 175.167,275.246 c -0.812,-1.005 -0.385,-1.04 1.667,-1.04 1.969,0 2.491,-0.37 2.039,-1.535 -0.485,-1.265 -0.062,-1.436 2.288,-0.877 1.599,0.375 3.115,0.664 3.397,0.656 3.134,-0.061 3.858,-0.404 3.385,-1.626 -1.043,-2.735 1.558,-2.663 3.055,0.087 1.417,2.625 1.497,2.654 1.534,0.534 0.023,-1.234 0.405,-2.289 0.816,-2.35 6.139,-0.895 7.141,-0.603 8.379,2.38 l 1.256,3.013 0.884,-2.38 0.872,-2.423 0.863,1.111 -5.901,12.495 z"
           style="fill:#f0f8de;fill-opacity:1;fill-rule:nonzero;stroke:none"
           id="path110297"
           inkscape:connector-curvature="0" /><path
           d="m 162.606,255.427 c -0.099,-0.09 -0.148,-0.18 -0.148,-0.276 0,-0.411 -1.135,-0.544 -2.51,-0.28 -1.428,0.28 -2.513,0.019 -2.513,-0.595 0,-1.404 3.286,-3.172 5.937,-3.172 1.134,0 2.098,-0.454 2.098,-1.006 0,-0.552 -0.491,-1.006 -1.062,-1.006 -0.583,0 -2.05,-0.933 -3.264,-2.098 l -2.201,-2.14 3.263,0.442 c 2.16,0.301 3.264,0.042 3.264,-0.785 0,-0.742 0.804,-1.032 2.01,-0.72 1.124,0.29 2.008,0.027 2.008,-0.595 0,-1.625 2.551,-1.385 4.022,0.37 0.682,0.834 1.687,1.508 2.258,1.508 0.571,0 0.32,-0.803 -0.594,-1.815 -0.914,-1.006 -1.664,-2.141 -1.664,-2.515 0,-1.061 3.827,-0.802 4.521,0.314 0.993,1.618 2.319,1.164 3.012,-1.006 0.804,-2.54 1.95,-2.522 5.582,0.073 l 2.926,2.065 -0.633,-3.071 c -0.754,-3.786 1.075,-4.091 5.154,-0.884 2.68,2.111 2.753,2.111 1.698,0.129 -1.257,-2.338 -0.655,-3.446 1.436,-2.642 0.784,0.304 2.098,-0.007 2.921,-0.694 1.036,-0.852 1.508,-0.902 1.508,-0.118 0,0.621 0.674,1.124 1.509,1.124 0.822,0 1.503,-0.621 1.503,-1.405 0,-0.976 0.895,-1.345 2.766,-1.136 10.457,1.185 -3.067,-4.892 -15.23,-6.84 -7.945,-1.276 -8.741,-1.226 -11.361,0.503 -1.547,1.025 -3.355,1.847 -4.049,1.847 -2.079,0.009 -1.417,-1.999 1.006,-3.042 1.657,-0.717 1.055,-0.796 -2.262,-0.282 -2.491,0.38 -5.656,0.633 -7.031,0.558 -1.386,-0.067 -4.753,0.534 -7.475,1.33 -2.712,0.781 -5.092,1.307 -5.276,1.123 -1.043,-1.042 5.386,-5.194 8.985,-5.776 l 4.269,-0.693 -3.77,-0.119 c -2.62,-0.091 -3.767,-0.582 -3.767,-1.637 0,-0.822 0.796,-1.576 1.76,-1.656 0.963,-0.092 2.208,-0.251 2.761,-0.386 0.551,-0.128 1.649,-0.278 2.452,-0.339 1.063,-0.092 0.927,-0.495 -0.503,-1.538 -2.483,-1.817 -1.306,-3.122 1.479,-1.638 1.724,0.926 2.098,0.834 2.098,-0.532 0,-1.284 0.724,-1.547 3.264,-1.192 1.798,0.247 4.17,0.792 5.274,1.192 1.981,0.723 1.95,0.723 0.031,-0.842 -1.618,-1.322 -1.611,-1.804 0.285,-1.744 l 40.179,27.388 z"
           style="fill:#e9f5e8;fill-opacity:1;fill-rule:nonzero;stroke:none"
           id="path110299"
           inkscape:connector-curvature="0" /><path
           d="m 165.342,201.558 c -2.017,0.346 -3.857,0.433 -4.927,0.213 l 1.095,-2.825 z"
           style="fill:#e9f5e8;fill-opacity:1;fill-rule:nonzero;stroke:none"
           id="path110301"
           inkscape:connector-curvature="0" /><path
           d="m 168.235,160.414 c -0.693,-0.244 -0.906,-0.826 -0.472,-1.287 0.219,-0.234 0.753,-0.32 1.434,-0.271 l -0.287,1.957 c -0.196,-0.169 -0.427,-0.309 -0.675,-0.399"
           style="fill:#aebfc4;fill-opacity:1;fill-rule:nonzero;stroke:none"
           id="path110303"
           inkscape:connector-curvature="0" /><path
           d="m 163.433,133.389 c -2.522,1.55 -8.006,2.471 -8.006,1.347 0,-0.563 0.792,-1.225 1.756,-1.476 0.967,-0.241 -0.503,-0.241 -3.264,0 -4.037,0.349 -4.779,0.201 -3.767,-0.815 1.92,-1.939 1.486,-2.663 -1.256,-2.137 -3.246,0.62 -7.804,-0.534 -7.03,-1.79 0.331,-0.533 1.625,-0.975 2.882,-0.975 4.3,0 3.698,-1.376 -1.539,-3.485 -8.907,-3.576 -6.961,-6.239 2.202,-3.012 4.643,1.637 6.459,1.355 3.043,-0.465 -1.142,-0.621 -2.068,-1.836 -2.068,-2.7 0,-1.215 0.613,-1.428 2.67,-0.915 2.372,0.592 2.544,0.503 1.378,-0.904 -2.703,-3.266 0.16,-3.273 4.65,0 2.092,1.525 2.171,1.506 1.596,-0.721 -0.541,-2.103 -0.43,-2.201 1.097,-0.945 1.515,1.234 1.619,1.185 1.005,-0.502 -0.594,-1.668 -0.361,-1.608 1.828,0.369 2.552,2.331 4.129,2.139 3.165,-0.369 -0.765,-1.999 1.645,-1.742 5.465,0.589 1.817,1.117 3.264,1.497 3.264,0.884 0,-0.681 1.055,-0.86 2.761,-0.472 0.141,0.032 0.271,0.059 0.394,0.085 l -2.763,18.764 c -5.12,-0.836 -8.477,-0.96 -9.463,-0.355"
           style="fill:#aebfc4;fill-opacity:1;fill-rule:nonzero;stroke:none"
           id="path110305"
           inkscape:connector-curvature="0" /><path
           d="m 160.159,156.393 -6.049,-7.888 c 1.03,0.12 0.463,-0.597 -1.254,-2.308 -3.549,-3.546 -3.286,-5.683 0.53,-4.591 1.637,0.474 3.447,1.156 4.017,1.509 0.576,0.351 1.078,-0.189 1.159,-1.187 0.087,-1.003 0.229,-2.327 0.289,-2.983 0.061,-0.65 0.411,-1.515 0.785,-1.888 0.791,-0.792 6.839,2.601 6.839,3.827 0,0.471 0.412,0.583 0.945,0.251 0.613,-0.381 0.613,-1.508 0,-3.135 -0.533,-1.397 -0.945,-2.992 -0.945,-3.544 0,-0.975 2.565,0.622 5.812,3.423 l -2.729,18.534 c -2.267,-0.077 -5.315,-0.077 -9.399,-0.02"
           style="fill:#aebfc4;fill-opacity:1;fill-rule:nonzero;stroke:none"
           id="path110307"
           inkscape:connector-curvature="0" /><path
           d="m 169.491,112.576 c -6.542,-1.356 -8.58,-2.449 -7.567,-4.088 0.693,-1.114 2.042,-0.997 8.067,0.634 1.539,0.41 1.245,-0.222 -1.254,-2.644 -1.797,-1.729 -3.267,-3.355 -3.267,-3.636 0,-0.995 5.587,0.242 8.79,1.949 1.352,0.718 2.263,1.072 2.742,1.067 l -1.238,8.414 c -1.334,-0.511 -3.845,-1.197 -6.273,-1.696"
           style="fill:#aebfc4;fill-opacity:1;fill-rule:nonzero;stroke:none"
           id="path110309"
           inkscape:connector-curvature="0" /><path
           d="m 163.054,160.168 c 0.731,-0.022 1.953,0.287 3.33,0.999 0.934,0.482 1.772,0.79 2.343,0.886 l -0.681,4.625 z"
           style="fill:#aebfc4;fill-opacity:1;fill-rule:nonzero;stroke:none"
           id="path110311"
           inkscape:connector-curvature="0" /><path
           d="m 175.989,103.001 c -2.038,-2.699 -1.847,-3.885 0.533,-3.263 0.581,0.153 1.041,0.168 1.373,0.06 l -0.733,4.977 c -0.229,-0.451 -0.619,-1.041 -1.173,-1.774"
           style="fill:#aebfc4;fill-opacity:1;fill-rule:nonzero;stroke:none"
           id="path110313"
           inkscape:connector-curvature="0" /><path
           d="m 189.842,332.847 0.738,0.976 c -0.451,-0.093 -0.705,-0.419 -0.738,-0.976"
           style="fill:#fff0ab;fill-opacity:1;fill-rule:nonzero;stroke:none"
           id="path110315"
           inkscape:connector-curvature="0" /><path
           d="m 183.926,330.46 c -0.675,0.686 -1.649,0.545 -2.945,-0.399 -1.869,-1.368 -1.816,-1.498 1.288,-3.264 0.862,-0.493 1.506,-0.944 1.956,-1.382 l 3.069,4.062 c -1.43,0.082 -2.866,0.492 -3.368,0.983"
           style="fill:#fff0ab;fill-opacity:1;fill-rule:nonzero;stroke:none"
           id="path110317"
           inkscape:connector-curvature="0" /><path
           d="m 188.195,312.88 c -1.98,1.992 -5.053,2.011 -4.299,0.032 0.472,-1.216 -0.233,-1.375 -3.92,-0.873 -5.404,0.742 -6.085,-0.933 -1.103,-2.735 2.42,-0.872 3.274,-1.718 2.955,-2.951 -0.535,-2.049 2.638,-3.184 5.079,-1.817 1.337,0.743 1.669,0.45 1.669,-1.539 0,-2.037 0.373,-2.379 2.171,-1.919 1.767,0.472 2.03,0.271 1.466,-1.184 -0.545,-1.436 -0.262,-1.718 1.356,-1.295 1.116,0.289 2.037,0.13 2.037,-0.373 0,-1.421 1.395,-1.113 3.341,0.565 l -0.66,13.582 c -4.341,-1.289 -8.455,-1.121 -10.092,0.507"
           style="fill:#f9f6c6;fill-opacity:1;fill-rule:nonzero;stroke:none"
           id="path110319"
           inkscape:connector-curvature="0" /><path
           d="m 194.163,332.441 c -1.636,1.079 -2.861,1.531 -3.583,1.382 l -0.738,-0.976 c -0.023,-0.377 0.055,-0.857 0.242,-1.443 0.503,-1.584 0.118,-1.945 -2.262,-1.945 -0.175,0 -0.352,0.006 -0.528,0.018 l -3.069,-4.062 c 0.771,-0.75 0.971,-1.465 0.706,-2.297 -0.362,-1.173 -0.083,-1.748 0.792,-1.627 2.902,0.393 4.029,-0.099 3.477,-1.545 -0.956,-2.514 2.712,-3.711 5.492,-1.791 1.84,1.268 2.103,1.325 1.196,0.19 -1.631,-2.03 -0.179,-4.15 2.282,-3.564 l -0.782,16.098 c -1.099,0.294 -2.089,0.813 -3.225,1.562"
           style="fill:#f9f6c6;fill-opacity:1;fill-rule:nonzero;stroke:none"
           id="path110321"
           inkscape:connector-curvature="0" /><path
           d="m 199.3,291.524 c -0.386,-0.152 -0.755,-0.241 -1.058,-0.241 -0.834,0 -1.779,-0.418 -2.102,-0.932 -0.321,-0.523 -2.339,-0.915 -4.491,-0.885 -2.148,0.031 -4.49,-0.313 -5.213,-0.754 -0.713,-0.441 -2.773,-0.712 -4.552,-0.59 -2.669,0.179 -3.275,-0.182 -3.545,-2.079 -0.229,-1.639 -1.013,-2.301 -2.822,-2.384 -1.387,-0.057 -2.963,-0.229 -3.515,-0.382 -0.553,-0.141 -1.798,-0.159 -2.762,-0.061 -0.967,0.103 -1.76,-0.219 -1.76,-0.693 0,-1.325 5.558,-4.299 8.067,-4.299 2.202,0 2.239,-0.05 0.473,-2.008 -0.361,-0.397 -0.647,-0.715 -0.853,-0.97 l 24.534,8.045 z"
           style="fill:#f9f6c6;fill-opacity:1;fill-rule:nonzero;stroke:none"
           id="path110323"
           inkscape:connector-curvature="0" /><path
           d="m 189.993,362.607 c -1.687,0 -1.779,-0.491 -0.472,-2.913 1.055,-1.969 0.392,-2.019 -7.222,-0.572 -2.483,0.48 -3.77,0.339 -3.77,-0.373 0,-1.295 5.214,-4.177 7.598,-4.177 1.375,0 1.455,-0.252 0.442,-1.478 -0.998,-1.196 -0.968,-1.619 0.221,-2.068 0.804,-0.313 1.885,-0.472 2.379,-0.374 2.1,0.393 3.406,-0.179 3.174,-1.355 -0.149,-0.762 0.814,-1.226 2.513,-1.184 0.392,0.007 0.732,-0.004 1.03,-0.035 l -1.994,12.442 c -1.519,1.185 -3.197,2.087 -3.899,2.087"
           style="fill:#fdd99e;fill-opacity:1;fill-rule:nonzero;stroke:none"
           id="path110325"
           inkscape:connector-curvature="0" /><path
           d="m 160.415,201.771 c -0.608,-0.124 -0.97,-0.345 -0.97,-0.675 0,-0.438 0.513,-1.349 1.18,-2.022 l 0.885,-0.128 z"
           style="fill:#e9f3d8;fill-opacity:1;fill-rule:nonzero;stroke:none"
           id="path110327"
           inkscape:connector-curvature="0" /><path
           d="m 150.46,200.546 4.11,-0.596 c -1.637,0.379 -3.152,0.6 -4.11,0.596"
           style="fill:#e9f3d8;fill-opacity:1;fill-rule:nonzero;stroke:none"
           id="path110329"
           inkscape:connector-curvature="0" /><path
           d="m 154.993,164.64 c 0,-0.164 0.028,-0.327 0.091,-0.491 0.374,-0.974 1.208,-1.295 2.22,-0.872 0.904,0.369 2.312,0.774 3.147,0.903 0.822,0.14 0.944,0.049 0.251,-0.19 -2.544,-0.876 -1.226,-2.483 1.504,-1.851 1.981,0.464 2.342,0.362 1.287,-0.339 -1.506,-1.004 -1.396,-1.602 -0.439,-1.632 l 4.992,6.51 z"
           style="fill:#becfc4;fill-opacity:1;fill-rule:nonzero;stroke:none"
           id="path110331"
           inkscape:connector-curvature="0" /><path
           d="m 159.887,156.396 c -8.771,0.129 -14.507,-0.17 -14.507,-0.754 0,-0.534 0.705,-0.975 1.57,-0.975 0.872,0 2.208,-0.633 2.982,-1.405 1.214,-1.216 1.184,-1.497 -0.16,-2.011 -0.854,-0.332 -2.986,-0.59 -4.734,-0.602 -3.695,-0.011 -6.227,-1.327 -5.343,-2.762 1.097,-1.77 6.089,-2.091 10.206,-0.656 2.176,0.757 3.535,1.195 4.209,1.274 l 6.049,7.888 c -0.092,0.001 -0.18,0.002 -0.272,0.003"
           style="fill:#becfc4;fill-opacity:1;fill-rule:nonzero;stroke:none"
           id="path110333"
           inkscape:connector-curvature="0" /><path
           d="m 154.894,187.815 c -0.343,-0.541 -1.025,-1.002 -1.539,-1.002 -1.447,0 -1.143,0.751 0.595,1.418 0.22,0.087 0.442,0.128 0.593,0.16 0.48,0.067 0.61,-0.142 0.351,-0.576 m 6.616,11.131 -0.885,0.128 c 0.005,-0.006 0.01,-0.011 0.016,-0.016 0.811,-0.817 -0.533,-0.682 -4.121,0.38 -0.65,0.192 -1.309,0.364 -1.95,0.512 l -4.11,0.596 c -0.353,-0.003 -0.631,-0.035 -0.81,-0.103 -1.314,-0.512 -1.196,-1.005 0.754,-3.085 l 2.289,-2.44 -3.386,0.964 c -4.368,1.257 -9.681,1.257 -10.454,0 -0.796,-1.283 5.915,-4.037 9.883,-4.049 h 3.177 l -2.956,-2.35 c -0.927,-0.741 -1.554,-1.554 -1.887,-2.286 l 1.999,-1.955 c 0.774,0.259 1.192,-0.14 1.303,-1.274 l 3.667,-3.588 c 0.668,-0.28 1.314,-0.682 1.757,-1.133 1.288,-1.276 1.882,-1.304 3.588,-0.252 1.124,0.704 2.068,1.629 2.068,2.041 0,0.423 0.796,-0.03 1.79,-1.006 1.927,-1.858 2.472,-4.268 0.975,-4.268 -0.495,0 -0.563,-0.48 -0.191,-1.093 0.48,-0.773 -0.262,-0.914 -2.452,-0.442 -0.569,0.126 -1.065,0.205 -1.489,0.238 l 7.961,-7.787 z"
           style="fill:#d5ead8;fill-opacity:1;fill-rule:nonzero;stroke:none"
           id="path110335"
           inkscape:connector-curvature="0" /><path
           d="m 150.404,183.269 c 0,-1.779 0.521,-2.484 1.919,-2.484 0.503,0 1.118,-0.154 1.716,-0.405 l -3.667,3.588 c 0.021,-0.209 0.032,-0.441 0.032,-0.699"
           style="fill:#d0e2ce;fill-opacity:1;fill-rule:nonzero;stroke:none"
           id="path110337"
           inkscape:connector-curvature="0" /><path
           d="m 160.085,174.465 c -1.062,0.086 -1.645,-0.115 -1.645,-0.611 0,-0.625 -1.958,-1.105 -4.521,-1.105 -4.711,0 -5.594,-0.864 -3.012,-3.012 1.006,-0.834 3.134,-1.055 6.276,-0.656 l 4.772,0.595 -3.736,-1.982 c -2.203,-1.168 -3.226,-2.127 -3.226,-3.054 l 13.053,2.038 z"
           style="fill:#d0e2ce;fill-opacity:1;fill-rule:nonzero;stroke:none"
           id="path110339"
           inkscape:connector-curvature="0" /><path
           d="m 148.987,185.215 c 0.029,0.011 0.055,0.016 0.082,0.027 l -1.999,1.955 c -0.715,-1.565 -0.07,-2.744 1.917,-1.982"
           style="fill:#d0e2ce;fill-opacity:1;fill-rule:nonzero;stroke:none"
           id="path110341"
           inkscape:connector-curvature="0" /></g></g></g></svg>